{"title":"Pantera - Vulgar Diplay Of Power - CD remaster by MC Lurken 24-b","uid":7408971,"size":1306860866,"categoryP":"audio","categoryS":"flac","magnet":"?xt=urn:btih:ea4605a2513a528884446209ce7a0fbf56b19383&amp;dn=Pantera+-+Vulgar+Diplay+Of+Power+-+CD+remaster+by+MC+Lurken+24-b&amp;tr=udp%3A%2F%2Ftracker.openbittorrent.com%3A80&amp;tr=udp%3A%2F%2Fopen.demonii.com%3A1337&amp;tr=udp%3A%2F%2Ftracker.coppersurfer.tk%3A6969&amp;tr=udp%3A%2F%2Fexodus.desync.com%3A6969","seeders":1,"leechers":0,"uploader":"beavis39","files":-1,"time":1341327887,"description":"Pantera - Vulgar Display Of Power - CD remaster by MC Lurken (a.k.a. Beavis39)\n\n\n!!!!!!!!!!!!!THIS IS NOT AN OFFICIAL REMASTER, THIS IS A FAN RELEASE!!!!!!!!!!!!!!\n!!!!!!!!!!!!!THIS IS NOT AN OFFICIAL REMASTER, THIS IS A FAN RELEASE!!!!!!!!!!!!!!\n!!!!!!!!!!!!!THIS IS NOT AN OFFICIAL REMASTER, THIS IS A FAN RELEASE!!!!!!!!!!!!!!\n\n\nProduced from the original CD, not the 20th anniversary remaster\n\n\n1 - Mouth For War\n2 - A New Level\n3 - Walk\n4 - Fucking Hostile\n5 - This Love\n6 - Rise\n7 - No Good (Attack The Radical)\n8 - Live In A Hole\n9 - Regular People (Conceit)\n10 - By Demons Be Driven\n11 - Hollow\n\n\nfoobar2000 1.1.13 / Dynamic Range Meter 1.1.1\nlog date: 2012-07-03 07:03:26\n\n--------------------------------------------------------------------------------\nAnalyzed: ? / ?\n--------------------------------------------------------------------------------\n\nDR         Peak         RMS     Duration Track\n--------------------------------------------------------------------------------\nDR11      -0.13 dB   -11.93 dB      3:57 ?-01 - Mouth For War\nDR10      -0.07 dB   -11.46 dB      3:57 ?-02 - A New Level\nDR11      -0.07 dB   -12.60 dB      5:15 ?-03 - Walk\nDR9       -1.10 dB   -11.68 dB      2:49 ?-04 - Fucking Hostile\nDR11      -0.07 dB   -14.27 dB      6:33 ?-05 - This Love\nDR10      -0.27 dB   -12.59 dB      4:36 ?-06 - Rise\nDR11      -0.26 dB   -12.35 dB      4:50 ?-07 - No Good (Attack The Radical)\nDR10      -0.07 dB   -11.97 dB      5:00 ?-08 - Live In A Hole\nDR11      -0.07 dB   -12.44 dB      5:27 ?-09 - Regular People (Conceit)\nDR11      -0.07 dB   -12.21 dB      4:40 ?-10 - By Demons Be Driven\nDR11      -0.10 dB   -12.88 dB      5:49 ?-11 - Hollow\n--------------------------------------------------------------------------------\n\nNumber of tracks:  11\nOfficial DR value: DR11\n\nSamplerate:        96000 Hz\nChannels:          2\nBits per sample:   24\nBitrate:           4608 kbps\nCodec:             PCM\n\n\n\nAbsolutely my favorite metal band out of the 90's, I've seen these guys 8 times\n\nLong live Dimebag Darrell\n\nenjoy :)","torrent":{"xt":"urn:btih:ea4605a2513a528884446209ce7a0fbf56b19383","amp;dn":"Pantera+-+Vulgar+Diplay+Of+Power+-+CD+remaster+by+MC+Lurken+24-b","amp;tr":["udp%3A%2F%2Ftracker.openbittorrent.com%3A80","udp%3A%2F%2Fopen.demonii.com%3A1337","udp%3A%2F%2Ftracker.coppersurfer.tk%3A6969","udp%3A%2F%2Fexodus.desync.com%3A6969"],"infoHash":"ea4605a2513a528884446209ce7a0fbf56b19383","infoHashBuffer":{"type":"Buffer","data":[234,70,5,162,81,58,82,136,132,68,98,9,206,122,15,191,86,177,147,131]},"announce":[],"urlList":[]}}